<svg xmlns="http://www.w3.org/2000/svg" xmlns:xlink="http://www.w3.org/1999/xlink" width="0" height="0" style="position:absolute">
	
		<symbol id="i-apprentice" viewBox="">
			<path d="M85.849 67.975l-36.373-63c-2.31-4-8.083-4-10.393 0l-36.373 63c-2.309 4 .578 9 5.197 9h72.746c4.619 0 7.505-5 5.196-9z" stroke="red" stroke-width="4"></path><path d="M43.96 51.654l7.85-19.804h5.227l-12.07 28.43c-.812 1.812-1.57 3.1-2.273 3.866a7.28 7.28 0 0 1-2.485 1.735c-.937.39-2.117.586-3.539.586-1.234 0-2.023-.07-2.367-.211l.14-3.563 2.134.094c1.64 0 2.859-.789 3.656-2.367l.586-1.219.89-2.086L30.084 31.85h5.04z" style="fill:#030303"></path>
		</symbol>
	
</svg>
